HIERARCHY
ROOT Pelvis
{
	OFFSET 0.000000 0.000000 0.000000
	CHANNELS 6 Xposition Yposition Zposition Xrotation Yrotation Zrotation
	JOINT LeftUpLeg_virtual
	{
		OFFSET 0.000000 0.000000 0.000000
		CHANNELS 3 Xrotation Yrotation Zrotation
		JOINT LeftUpLeg
		{
			OFFSET 18.735201 -5.666702 -4.541200
			CHANNELS 3 Xrotation Yrotation Zrotation
			JOINT LeftLeg
			{
				OFFSET -0.021200 -31.938179 0.493100
				CHANNELS 3 Xrotation Yrotation Zrotation
				JOINT LeftFoot
				{
					OFFSET 0.021200 -31.938179 -4.336299
					CHANNELS 3 Xrotation Yrotation Zrotation
					JOINT LeftToeBase
					{
						OFFSET 0.943001 -26.722000 15.023500
						CHANNELS 3 Xrotation Yrotation Zrotation
						End Site
						{
							OFFSET 0 0 0
						}
					}
				}
			}
		}
	}
	JOINT RightUpLeg_virtual
	{
		OFFSET 0.000000 0.000000 0.000000
		CHANNELS 3 Xrotation Yrotation Zrotation
		JOINT RightUpLeg
		{
			OFFSET -18.735201 -5.666702 -4.541200
			CHANNELS 3 Xrotation Yrotation Zrotation
			JOINT RightLeg
			{
				OFFSET 0.018946 -31.938133 0.493100
				CHANNELS 3 Xrotation Yrotation Zrotation
				JOINT RightFoot
				{
					OFFSET -0.018946 -31.938126 -4.336299
					CHANNELS 3 Xrotation Yrotation Zrotation
					JOINT RightToeBase
					{
						OFFSET -0.943001 -26.722004 15.023500
						CHANNELS 3 Xrotation Yrotation Zrotation
						End Site
						{
							OFFSET 0 0 0
						}
					}
				}
			}
		}
	}
	JOINT Hips_virtual
	{
		OFFSET 0.000000 0.000000 0.000000
		CHANNELS 3 Xrotation Yrotation Zrotation
		JOINT Hips
		{
			OFFSET -0.000000 -0.000000 -0.000000
			CHANNELS 3 Xrotation Yrotation Zrotation
			JOINT Spine
			{
				OFFSET 0.000000 10.199997 -0.299500
				CHANNELS 3 Xrotation Yrotation Zrotation
				JOINT Spine1
				{
					OFFSET 0.000000 11.900002 -1.516600
					CHANNELS 3 Xrotation Yrotation Zrotation
					JOINT Spine2
					{
						OFFSET 0.000000 13.600006 -2.842500
						CHANNELS 3 Xrotation Yrotation Zrotation
						JOINT Neck_virtual
						{
							OFFSET 0.000000 0.000000 0.000000
							CHANNELS 3 Xrotation Yrotation Zrotation
							JOINT Neck
							{
								OFFSET 0.000000 9.624100 -2.890100
								CHANNELS 3 Xrotation Yrotation Zrotation
								JOINT Head
								{
									OFFSET 0.000000 14.068802 -1.351900
									CHANNELS 3 Xrotation Yrotation Zrotation
									End Site
									{
										OFFSET 0 0 0
									}
								}
							}
						}
						JOINT LeftShoulder_virtual
						{
							OFFSET 0.000000 0.000000 0.000000
							CHANNELS 3 Xrotation Yrotation Zrotation
							JOINT LeftShoulder
							{
								OFFSET 15.263000 10.923401 -0.547700
								CHANNELS 3 Xrotation Yrotation Zrotation
								JOINT LeftArm
								{
									OFFSET 25.438599 -2.830597 -13.032500
									CHANNELS 3 Xrotation Yrotation Zrotation
									JOINT LeftForeArm
									{
										OFFSET 29.960503 0.000000 0.000000
										CHANNELS 3 Xrotation Yrotation Zrotation
										JOINT LeftHand
										{
											OFFSET 27.849251 0.000000 0.000000
											CHANNELS 3 Xrotation Yrotation Zrotation
											End Site
											{
												OFFSET 0 0 0
											}
										}
									}
								}
							}
						}
						JOINT RightShoulder_virtual
						{
							OFFSET 0.000000 0.000000 0.000000
							CHANNELS 3 Xrotation Yrotation Zrotation
							JOINT RightShoulder
							{
								OFFSET -15.263000 10.923401 -0.547700
								CHANNELS 3 Xrotation Yrotation Zrotation
								JOINT RightArm
								{
									OFFSET -25.438599 -2.830597 -13.032500
									CHANNELS 3 Xrotation Yrotation Zrotation
									JOINT RightForeArm
									{
										OFFSET -29.960503 0.000000 0.000000
										CHANNELS 3 Xrotation Yrotation Zrotation
										JOINT RightHand
										{
											OFFSET -27.849251 0.000000 0.000000
											CHANNELS 3 Xrotation Yrotation Zrotation
											End Site
											{
												OFFSET 0 0 0
											}
										}
									}
								}
							}
						}
					}
				}
			}
		}
	}
}
MOTION
Frames: 8
Frame Time: 0.03333333
-4.161081 89.139381 3.619356 0.000000 0.000000 0.000000 2.465548 27.954747 0.864966 -39.070991 -23.173034 -0.106940 31.695582 15.094691 -8.532545 5.856754 -3.208942 -6.040526 0.000000 0.000000 0.000000 2.465548 27.954747 0.864966 8.204642 -27.483554 -2.441241 24.949021 -8.763800 6.766036 -31.849493 -11.230597 2.032019 0.000000 0.000000 0.000000 2.465548 27.954747 0.864966 0.000000 -0.000001 0.000000 3.916144 4.675224 -1.851976 0.662380 3.033937 0.848257 0.000000 0.000000 0.000000 0.672732 3.142729 0.838939 -0.625660 2.006443 -1.242542 0.000000 0.000000 0.000000 0.672732 3.142729 0.838939 -0.170425 1.694771 -1.674852 -70.359179 1.043902 -26.985326 2.443058 -70.793258 3.754327 0.000000 0.000000 0.000000 0.672732 3.142729 0.838939 4.020289 15.450586 6.652469 13.125175 -8.190054 63.320805 15.659592 40.753529 -6.335587 0.000000 0.000000 0.000000 
-4.265702 89.210548 3.588028 0.000000 0.000000 0.000000 2.695154 26.572819 0.676110 -38.767300 -22.581097 0.701511 32.125054 15.305976 -8.594595 5.312303 -2.981647 -6.171471 0.000000 0.000000 0.000000 2.695154 26.572819 0.676110 7.178145 -26.488889 -2.781602 25.402677 -8.488378 6.685642 -31.702282 -11.066399 1.931341 0.000000 0.000000 0.000000 2.695154 26.572819 0.676110 0.000000 0.000001 0.000000 3.981508 4.584267 -1.855293 0.707249 2.981736 0.854122 0.000000 0.000000 0.000000 0.717241 3.091658 0.846010 -0.683707 1.729169 -1.173253 0.000000 0.000000 0.000000 0.717241 3.091658 0.846010 -0.162804 1.312155 -1.801276 -70.388917 1.155131 -27.050795 2.651008 -71.946440 3.781613 0.000000 0.000000 0.000000 0.717241 3.091658 0.846010 4.048800 15.426143 6.521220 12.805617 -8.144398 63.265761 15.745709 41.230854 -6.421002 0.000000 0.000000 0.000000 
-4.366320 89.278542 3.545858 0.000000 0.000000 0.000000 2.952939 25.155773 0.485529 -38.492743 -22.009371 1.507386 32.564081 15.556613 -8.673195 4.757984 -2.726001 -6.320014 0.000000 0.000000 0.000000 2.952939 25.155773 0.485529 6.104809 -25.429192 -3.153841 25.872652 -8.213155 6.679355 -31.537470 -10.887018 1.831870 0.000000 0.000000 0.000000 2.952939 25.155773 0.485529 0.000000 0.000001 0.000000 4.042608 4.507547 -1.838807 0.745713 2.934837 0.846919 0.000000 0.000000 0.000000 0.756891 3.044797 0.839888 -0.747349 1.488618 -1.121933 0.000000 0.000000 0.000000 0.756891 3.044797 0.839888 -0.084040 0.806778 -1.884200 -70.540295 1.291849 -27.179160 2.895035 -73.071044 3.786724 0.000000 0.000000 0.000000 0.756891 3.044797 0.839888 4.018017 15.343494 6.386903 12.582812 -8.065739 63.241855 15.851390 41.731964 -6.506788 0.000000 0.000000 0.000000 
-4.465264 89.342896 3.493816 0.000000 0.000000 0.000000 3.240364 23.700297 0.293087 -38.254257 -21.483148 2.306794 32.998396 15.838959 -8.774454 4.223153 -2.450951 -6.462832 0.000000 0.000000 0.000000 3.240364 23.700297 0.293087 4.974609 -24.378347 -3.519361 26.382338 -7.959421 6.675631 -31.361852 -10.715255 1.719160 0.000000 0.000000 0.000000 3.240364 23.700297 0.293087 0.000000 0.000002 0.000000 4.091343 4.393996 -1.855490 0.790327 2.868900 0.853545 0.000000 0.000000 0.000000 0.800375 2.980542 0.848367 -0.837298 1.280600 -1.064028 0.000000 0.000000 0.000000 0.800375 2.980542 0.848367 -0.018817 0.448295 -1.891517 -70.716548 1.401111 -27.633596 3.155357 -74.131103 3.832557 0.000000 0.000000 0.000000 0.800375 2.980542 0.848367 4.046394 15.322761 6.229103 12.299361 -7.930878 63.218093 15.936168 42.171657 -6.586628 0.000000 0.000000 0.000000 
-4.565968 89.407829 3.432760 0.000000 0.000000 0.000000 3.555859 22.200802 0.099360 -38.057155 -21.393278 2.949318 33.472069 16.406485 -8.839247 3.684816 -1.953404 -6.776061 0.000000 0.000000 0.000000 3.555859 22.200802 0.099360 3.785448 -23.242572 -3.844462 26.880384 -7.669532 6.633733 -31.150690 -10.540447 1.638153 0.000000 0.000000 0.000000 3.555859 22.200802 0.099360 0.000000 0.000000 0.000000 4.139660 4.275350 -1.851992 0.813766 2.798223 0.871274 0.000000 0.000000 0.000000 0.822901 2.911497 0.866819 -0.925028 1.091610 -1.038540 0.000000 0.000000 0.000000 0.822901 2.911497 0.866819 0.049266 0.112973 -1.841731 -70.965392 1.555738 -28.323618 3.446513 -75.023440 3.823254 0.000000 0.000000 0.000000 0.822901 2.911497 0.866819 4.069648 15.320680 6.024855 12.145408 -7.778643 63.262510 16.010672 42.685359 -6.730032 0.000000 0.000000 0.000000 
-4.667375 89.475021 3.362839 0.000000 0.000000 0.000000 3.894905 20.649089 -0.092300 -37.851583 -21.277798 3.607865 33.958154 17.013752 -8.904761 3.124397 -1.419002 -7.110064 0.000000 0.000000 0.000000 3.894905 20.649089 -0.092300 2.573297 -22.062119 -4.210589 27.365616 -7.398306 6.735875 -30.902146 -10.328122 1.507432 0.000000 0.000000 0.000000 3.894905 20.649089 -0.092300 0.000000 0.000000 0.000000 4.179013 4.178917 -1.847383 0.838986 2.743060 0.893644 0.000000 0.000000 0.000000 0.847069 2.858278 0.890173 -1.031873 0.902752 -1.020573 0.000000 0.000000 0.000000 0.847069 2.858278 0.890173 -0.103510 -0.217829 -1.680271 -70.957080 1.711565 -29.338722 3.697062 -75.737529 3.895568 0.000000 0.000000 0.000000 0.847069 2.858278 0.890173 4.080837 15.211111 5.832574 12.054083 -7.557006 63.218264 16.209494 43.249478 -6.794126 0.000000 0.000000 0.000000 
-4.768788 89.543579 3.284521 0.000000 0.000000 0.000000 4.250642 19.035508 -0.278956 -37.636347 -21.129626 4.287201 34.467648 17.652308 -8.974263 2.541209 -0.851716 -7.462676 0.000000 0.000000 0.000000 4.250642 19.035508 -0.278956 1.326159 -20.946869 -4.468697 27.805442 -7.080338 6.601492 -30.581735 -10.170383 1.515659 0.000000 0.000000 0.000000 4.250642 19.035508 -0.278956 0.000000 0.000001 0.000000 4.206311 4.079656 -1.852621 0.895980 2.686891 0.916957 0.000000 0.000000 0.000000 0.902539 2.804680 0.916454 -1.190729 0.695688 -0.991522 0.000000 0.000000 0.000000 0.902539 2.804680 0.916454 -0.033589 -0.456568 -1.544512 -71.151310 1.754730 -30.563881 3.947390 -76.397401 4.010112 0.000000 0.000000 0.000000 0.902539 2.804680 0.916454 4.107272 15.021811 5.670996 11.924080 -7.209788 63.117314 16.375242 43.773668 -6.874433 0.000000 0.000000 0.000000 
-4.867110 89.619293 3.202900 0.000000 0.000000 0.000000 4.615004 17.349877 -0.460082 -37.414280 -20.944572 4.993907 35.008838 18.313125 -9.050529 1.970523 -0.257289 -7.831468 0.000000 0.000000 0.000000 4.615004 17.349877 -0.460082 0.061655 -19.794448 -4.710037 28.220600 -6.747810 6.529948 -30.223293 -9.959892 1.436241 0.000000 0.000000 0.000000 4.615004 17.349877 -0.460082 0.000000 0.000002 0.000000 4.264686 3.966074 -1.882352 0.928443 2.625896 0.957005 0.000000 0.000000 0.000000 0.931976 2.747493 0.956905 -1.365836 0.443764 -0.949429 0.000000 0.000000 0.000000 0.931976 2.747493 0.956905 -0.058741 -0.652002 -1.390876 -71.151788 1.787974 -31.816677 4.252749 -77.081670 4.110986 0.000000 0.000000 0.000000 0.931976 2.747493 0.956905 4.159027 14.816704 5.502728 11.802285 -6.790994 62.996959 16.517088 44.233063 -6.950275 0.000000 0.000000 0.000000 
